HIERARCHY
ROOT Hips
{
	OFFSET 0.00000 0.00000 0.00000
	CHANNELS 6 Xposition Yposition Zposition Zrotation Yrotation Xrotation 
	JOINT LHipJoint
	{
		OFFSET 0 0 0
		CHANNELS 3 Zrotation Yrotation Xrotation
		JOINT LeftHip
		{
			OFFSET 1.36337 -1.57426 1.11036
			CHANNELS 3 Zrotation Yrotation Xrotation
			JOINT LeftKnee
			{
				OFFSET 2.38468 -6.55187 0.00000
				CHANNELS 3 Zrotation Yrotation Xrotation
				JOINT LeftAnkle
				{
					OFFSET 2.37166 -6.51609 0.00000
					CHANNELS 3 Zrotation Yrotation Xrotation
					JOINT LeftToe
					{
						OFFSET 0.29078 -0.79891 2.01393
						CHANNELS 3 Zrotation Yrotation Xrotation
						End Site
						{
							OFFSET 0.00000 -0.00000 1.07924
						}
					}
				}
			}
		}
	}
	JOINT RHipJoint
	{
		OFFSET 0 0 0
		CHANNELS 3 Zrotation Yrotation Xrotation
		JOINT RightHip
		{
			OFFSET -1.36349 -1.57426 1.11036
			CHANNELS 3 Zrotation Yrotation Xrotation
			JOINT RightKnee
			{
				OFFSET -2.29562 -6.30717 0.00000
				CHANNELS 3 Zrotation Yrotation Xrotation
				JOINT RightAnkle
				{
					OFFSET -2.40985 -6.62100 0.00000
					CHANNELS 3 Zrotation Yrotation Xrotation
					JOINT RightToe
					{
						OFFSET -0.23197 -0.63733 1.92232
						CHANNELS 3 Zrotation Yrotation Xrotation
						End Site
						{
							OFFSET -0.00000 -0.00000 1.01562
						}
					}
				}
			}
		}
	}
	JOINT lowerback
	{
		OFFSET 0 0 0
		CHANNELS 3 Zrotation Yrotation Xrotation
		JOINT Chest
		{
			OFFSET -0.08565 2.03602 -0.24562
			CHANNELS 3 Zrotation Yrotation Xrotation
			JOINT Chest2
			{
				OFFSET -0.00036 2.05693 0.00216
				CHANNELS 3 Zrotation Yrotation Xrotation
				JOINT lowerneck
				{
					OFFSET 0 0 0
					CHANNELS 3 Zrotation Yrotation Xrotation
					JOINT Neck
					{
						OFFSET -0.03664 1.69515 0.31789
						CHANNELS 3 Zrotation Yrotation Xrotation
						JOINT Head
						{
							OFFSET 0.00932 1.70181 -0.46013
							CHANNELS 3 Zrotation Yrotation Xrotation
							End Site
							{
								OFFSET 0.01243 1.77620 -0.19377
							}
						}
					}
				}
				JOINT LeftCollar
				{
					OFFSET 0 0 0
					CHANNELS 3 Zrotation Yrotation Xrotation
					JOINT LeftShoulder
					{
						OFFSET 3.74344 0.81315 -0.36647
CHANNELS 3 Zrotation Xrotation Yrotation
						JOINT LeftElbow
						{
OFFSET 0 -4.971850 -0.000000
CHANNELS 3 Zrotation Xrotation Yrotation
							JOINT LeftWrist
							{
OFFSET 0 -3.358110 0.000000
CHANNELS 3 Zrotation Xrotation Yrotation
								JOINT lhand
								{
									OFFSET 0 0 0
CHANNELS 3 Zrotation Xrotation Yrotation
									JOINT LFingers
									{
OFFSET 0 -0.622780 0.000000
CHANNELS 3 Zrotation Xrotation Yrotation
										End Site
										{
OFFSET 0 -0.502100 0.000000
										}
									}
								}
								JOINT LThumb
								{
OFFSET 0 0.000000 0.000000
CHANNELS 3 Zrotation Xrotation Yrotation
									End Site
									{
OFFSET 0 -0.509760 0.509760
									}
								}
							}
						}
					}
				}
				JOINT RightCollar
				{
					OFFSET 0 0 0
					CHANNELS 3 Zrotation Yrotation Xrotation
					JOINT RightShoulder
					{
						OFFSET -3.75385 0.50666 -0.06525
CHANNELS 3 Zrotation Xrotation Yrotation
						JOINT RightElbow
						{
OFFSET 0 -4.964930 -0.000000
CHANNELS 3 Zrotation Xrotation Yrotation
							JOINT RightWrist
							{
OFFSET 0 -3.349290 0.000000
CHANNELS 3 Zrotation Xrotation Yrotation
								JOINT rhand
								{
									OFFSET 0 0 0
CHANNELS 3 Zrotation Xrotation Yrotation
									JOINT RFingers
									{
OFFSET 0 -0.638040 0.000000
CHANNELS 3 Zrotation Xrotation Yrotation
										End Site
										{
OFFSET 0 -0.514410 0.000000
										}
									}
								}
								JOINT RThumb
								{
OFFSET 0 0.000000 0.000000
CHANNELS 3 Zrotation Xrotation Yrotation
									End Site
									{
OFFSET 0 -0.522260 0.522260
									}
								}
							}
						}
					}
				}
			}
		}
	}
}
MOTION
Frames: 10
Frame Time: 0.008333333333333333
-17.294438 8.479578 -0.401980 355.168417 83.652651 390.878165 0.000000 0.000000 0.000000 0.438594 22.306120 -64.110961 33.007008 15.325930 131.152274 1.828901 7.430138 24.263931 0.654616 5.174220 14.406400 0.000000 0.000000 0.000000 -7.613378 -17.340249 -41.936196 -27.225009 -18.698904 111.575286 -1.087904 -8.401771 -24.422943 -0.627248 -5.067751 14.101899 -6.847329 -2.275839 58.643263 -3.496179 -6.080455 5.534419 1.868915 -1.546020 -15.206211 3.240232 6.743752 -32.182066 -16.063456 11.817795 14.975123 -4.223234 3.573779 11.449835 0.000000 0.000000 0.000000 104.148796 -40.087228 25.507740 27.105193 -38.216049 9.589115 44.238934 -41.609320 15.275571 0.000000 0.000000 0.000000 -7.125000 0.000000 0.000000 10.820447 9.408223 9.070994 0.000000 0.000000 0.000000 -20.696316 -42.217182 35.450917 -41.443778 -48.896866 -19.522101 -37.474738 0.957291 36.540438 0.000000 0.000000 0.000000 7.125000 0.000000 0.000000 -6.278809 72.933708 4.162513
-17.326373 8.482057 -0.368614 359.360861 82.859612 395.236723 0.000000 0.000000 0.000000 -0.360876 22.645610 -64.749108 33.032175 15.304718 131.247470 1.814594 6.943504 24.188634 0.627633 5.069333 14.106431 0.000000 0.000000 0.000000 -8.224780 -17.595087 -42.706745 -27.492726 -18.596760 112.412442 -1.182687 -7.738547 -24.695612 -0.676435 -5.258196 14.646645 -6.190753 -2.951308 58.579197 -3.634476 -6.530440 5.400537 1.661617 -1.748772 -15.443300 3.391273 7.202512 -32.128925 -16.642952 12.644495 15.581317 -4.307388 3.842308 11.837995 0.000000 0.000000 0.000000 98.038354 -36.603763 19.513427 32.703732 -43.041409 13.240421 44.570041 -41.155858 14.272817 0.000000 0.000000 0.000000 -7.125000 0.000000 0.000000 11.237465 10.619069 9.155897 0.000000 0.000000 0.000000 -19.667881 -42.695556 36.608873 -42.618650 -49.546184 -20.410403 -38.268422 3.116482 37.916075 0.000000 0.000000 0.000000 7.125000 0.000000 0.000000 -6.950290 74.659313 4.873735
-17.323525 8.480706 -0.341672 362.165152 81.930490 398.095085 0.000000 0.000000 0.000000 -1.102224 23.209217 -64.704539 33.020753 15.314355 131.204202 1.758157 6.030107 23.859103 0.586434 4.903039 13.632238 0.000000 0.000000 0.000000 -8.911086 -17.586071 -43.019370 -27.640644 -18.538441 112.876783 -1.228897 -7.313111 -24.762088 -0.721086 -5.426273 15.128576 -5.696507 -3.461360 58.294440 -3.654668 -6.839202 5.377125 1.589874 -1.903791 -15.502396 3.377072 7.587164 -31.917007 -16.987733 13.408893 16.314356 -4.291033 4.095498 12.214344 0.000000 0.000000 0.000000 91.631400 -32.322427 13.755178 39.862518 -47.986727 18.337494 45.020882 -40.938584 13.718896 0.000000 0.000000 0.000000 -7.125000 0.000000 0.000000 11.638470 11.224206 9.350375 0.000000 0.000000 0.000000 -19.040019 -43.497341 37.864398 -43.075666 -49.790151 -20.758511 -38.964927 4.883255 38.708463 0.000000 0.000000 0.000000 7.125000 0.000000 0.000000 -7.842436 75.732553 5.675284
-17.308736 8.482445 -0.315842 364.171381 81.092112 400.124038 0.000000 0.000000 0.000000 -1.649144 23.693356 -64.384489 32.996996 15.334370 131.114477 1.810256 6.143780 24.214560 0.570228 4.835145 13.439053 0.000000 0.000000 0.000000 -9.521723 -17.445107 -43.260086 -27.725358 -18.504330 113.143282 -1.267522 -7.149596 -24.952302 -0.772459 -5.612028 15.662631 -4.978209 -3.921156 57.990002 -3.699860 -6.959125 5.377268 1.297641 -1.992970 -15.562133 3.495833 7.902472 -31.715350 -17.117663 14.020621 17.325950 -4.255649 4.293770 12.675833 0.000000 0.000000 0.000000 85.241718 -28.659710 8.646715 47.564236 -51.920859 24.253930 46.588993 -39.959795 13.911991 0.000000 0.000000 0.000000 -7.125000 0.000000 0.000000 12.580217 10.521840 10.332011 0.000000 0.000000 0.000000 -18.604041 -44.041999 38.679893 -43.367996 -49.943311 -20.982055 -39.455289 6.224021 38.672881 0.000000 0.000000 0.000000 7.125000 0.000000 0.000000 -8.917721 75.863267 6.478912
-17.292587 8.485730 -0.285456 366.904028 80.401934 403.105260 0.000000 0.000000 0.000000 -2.321366 23.734988 -64.516532 33.000177 15.331720 131.126320 1.828223 6.662041 24.299847 0.652960 5.164986 14.380459 0.000000 0.000000 0.000000 -10.119285 -17.562118 -43.704662 -27.797383 -18.474892 113.370508 -1.311456 -7.057030 -25.229594 -0.757955 -5.559531 15.511691 -4.142709 -4.409663 57.482404 -3.737137 -7.050738 5.345480 0.951723 -2.080064 -15.653369 4.396540 8.267032 -30.999245 -17.991454 14.448920 17.597848 -4.661717 4.456656 12.884062 0.000000 0.000000 0.000000 79.097784 -25.814820 4.257718 54.567426 -54.621587 29.876831 47.896527 -38.279823 14.677830 0.000000 0.000000 0.000000 -7.125000 0.000000 0.000000 13.212975 9.080854 11.277691 0.000000 0.000000 0.000000 -18.425491 -44.320733 39.266519 -43.766857 -50.149417 -21.287859 -40.136177 7.433342 38.288733 0.000000 0.000000 0.000000 7.125000 0.000000 0.000000 -10.635831 75.690150 7.696260
-17.292482 8.485396 -0.241401 367.544771 79.419238 404.297100 0.000000 0.000000 0.000000 -2.809137 24.384341 -65.189790 33.045062 15.293820 131.296308 1.899691 7.140059 24.757079 0.746096 5.516594 15.388224 0.000000 0.000000 0.000000 -10.433765 -17.072309 -44.755226 -27.935139 -18.417763 113.806062 -1.350728 -7.253769 -25.658926 -0.709931 -5.384451 15.008474 -3.597018 -4.600757 56.624633 -3.750864 -6.984098 5.319314 0.682356 -2.108118 -15.670803 5.237663 8.598847 -30.479166 -18.670100 14.835552 17.979929 -4.999788 4.605540 13.147256 0.000000 0.000000 0.000000 73.566968 -22.578294 0.045496 61.590908 -56.673531 35.677686 48.004966 -36.549295 14.308316 0.000000 0.000000 0.000000 -7.125000 0.000000 0.000000 13.364305 9.548711 11.283103 0.000000 0.000000 0.000000 -17.942097 -44.478276 40.052825 -44.378408 -50.459441 -21.758547 -40.434956 9.131454 38.786075 0.000000 0.000000 0.000000 7.125000 0.000000 0.000000 -11.039774 76.317392 8.134794
-17.301556 8.476429 -0.193126 368.517262 78.224031 405.891000 0.000000 0.000000 0.000000 -3.551262 25.118272 -65.987892 33.111422 15.237325 131.548287 2.010385 7.488029 25.476506 0.739775 5.494395 15.324385 0.000000 0.000000 0.000000 -11.040371 -16.570457 -46.002290 -28.122194 -18.338362 114.399275 -1.376894 -7.688538 -26.146624 -0.648996 -5.152379 14.343864 -3.153734 -4.684240 55.530741 -3.871804 -6.859254 5.418309 0.301621 -2.114253 -15.511038 5.745607 8.832937 -30.683174 -18.758872 15.200753 19.084327 -5.081719 4.705632 13.744073 0.000000 0.000000 0.000000 68.352134 -20.010200 -3.948729 67.604833 -57.999742 40.737503 45.894344 -33.732378 12.458216 0.000000 0.000000 0.000000 -7.125000 0.000000 0.000000 12.455094 12.657532 9.668610 0.000000 0.000000 0.000000 -17.493507 -44.582845 40.536546 -45.146937 -50.839592 -22.352868 -41.081552 11.383614 39.412104 0.000000 0.000000 0.000000 7.125000 0.000000 0.000000 -12.255273 77.197769 9.264036
-17.308050 8.465786 -0.140449 369.839332 76.982994 407.676726 0.000000 0.000000 0.000000 -4.359022 25.780506 -66.564455 33.163494 15.192649 131.746653 2.117906 7.585795 26.169838 0.658149 5.188816 14.447874 0.000000 0.000000 0.000000 -11.853561 -16.173961 -46.968585 -28.301429 -18.260244 114.969912 -1.400794 -7.971989 -26.515211 -0.694019 -5.325368 14.839012 -2.839889 -4.726760 54.510258 -4.020996 -6.757357 5.572317 -0.049110 -2.119478 -15.272307 6.075331 9.081366 -31.027206 -18.615267 15.609800 20.276974 -5.033626 4.827029 14.381746 0.000000 0.000000 0.000000 63.787799 -17.759303 -8.244840 72.617273 -58.826183 45.005495 43.512287 -34.413312 10.178431 0.000000 0.000000 0.000000 -7.125000 0.000000 0.000000 11.375014 16.248419 7.897297 0.000000 0.000000 0.000000 -17.118794 -44.694949 41.020954 -45.616936 -51.067180 -22.717687 -42.261689 13.396871 39.106899 0.000000 0.000000 0.000000 7.125000 0.000000 0.000000 -15.324002 77.269944 11.620253
-17.301842 8.469879 -0.080898 370.191860 75.822017 408.326359 0.000000 0.000000 0.000000 -4.630462 26.659109 -66.550486 33.163761 15.192435 131.747737 2.177343 7.594437 26.547891 0.684249 5.288075 14.732287 0.000000 0.000000 0.000000 -12.332906 -15.454357 -47.685057 -28.414849 -18.209710 115.332299 -1.412204 -8.366078 -26.870658 -0.751627 -5.537448 15.448137 -2.541652 -4.726725 53.736524 -4.123191 -6.622292 5.658344 -0.358331 -2.104023 -15.122833 6.356945 9.351032 -31.007590 -18.550034 16.017396 21.059878 -4.992111 4.981965 14.796305 0.000000 0.000000 0.000000 60.255416 -15.773933 -12.517109 74.562182 -59.079731 46.671840 40.163387 -35.197286 7.563779 0.000000 0.000000 0.000000 -7.125000 0.000000 0.000000 9.544695 20.180386 5.751990 0.000000 0.000000 0.000000 -16.531367 -44.893960 41.761914 -45.440939 -50.982657 -22.580876 -43.298019 14.934713 38.392083 0.000000 0.000000 0.000000 7.125000 0.000000 0.000000 -18.120015 76.846746 13.604918
-17.284690 8.482213 -0.021319 369.923746 74.859800 408.399434 0.000000 0.000000 0.000000 -4.602685 27.430598 -66.400904 33.131660 15.220042 131.625297 2.206656 7.494884 26.738674 0.754934 5.548034 15.478806 0.000000 0.000000 0.000000 -12.412888 -14.605904 -48.418776 -28.472871 -18.183505 115.518152 -1.417783 -8.697530 -27.144451 -0.762204 -5.574614 15.555217 -1.997430 -4.766655 52.877824 -4.189994 -6.405168 5.727108 -0.779684 -2.068269 -14.990518 6.669886 9.633101 -30.867977 -18.616597 16.470528 21.771371 -4.998481 5.155843 15.197631 0.000000 0.000000 0.000000 57.071250 -14.517838 -17.142216 74.160475 -59.024252 46.328087 38.170842 -37.351550 5.883453 0.000000 0.000000 0.000000 -7.125000 0.000000 0.000000 8.375909 22.528438 4.584900 0.000000 0.000000 0.000000 -15.851512 -44.983302 42.370061 -45.347262 -50.937434 -22.508089 -43.710764 16.372574 38.003454 0.000000 0.000000 0.000000 7.125000 0.000000 0.000000 -19.204625 76.563556 14.319664
